<?xml version="1.0" encoding="UTF-8"?>
<!-- Generator: Adobe Illustrator 27.0.0, SVG Export Plug-In . SVG Version: 6.00 Build 0)  -->
<svg version="1.1" id="Layer_1" xmlns="http://www.w3.org/2000/svg" xmlns:xlink="http://www.w3.org/1999/xlink" x="0px" y="0px" viewBox="0 0 657.8 550" style="enable-background:new 0 0 657.8 550;" xml:space="preserve">
<path d="M214.8,0l-7,11.7l-200,325L0,349.2l7,13.3l100,175l7,12.5h429.7l7-12.5l100-175l7-13.3l-7.8-12.5l-200-325L443,0H214.8z   M273.4,50h141.4l169.5,275H443L273.4,50z M228.9,72.7l74.2,121.1l-173.4,282L57.8,350L228.9,72.7z M332.8,241.4l51.6,83.6H281.2  L332.8,241.4z M250.8,375h335.2l-71.9,125H173.4L250.8,375z" fill="#ffffff"/>
</svg>