<?xml version="1.0" encoding="UTF-8"?>
<!-- Generator: Adobe Illustrator 27.0.0, SVG Export Plug-In . SVG Version: 6.00 Build 0)  -->
<svg version="1.1" id="Layer_1" xmlns="http://www.w3.org/2000/svg" xmlns:xlink="http://www.w3.org/1999/xlink" x="0px" y="0px" viewBox="0 0 539.1 600.8" style="enable-background:new 0 0 539.1 600.8;" xml:space="preserve">
  <path d="M0,0l2.3,27.3l43.8,494.5l1.6,17.2l16.4,4.7l198.4,55.5l6.2,1.6l7-1.6l198.4-54.7l16.4-4.7l1.6-17.2l44.5-495.3l2.3-26.6 h-27.3L27.3,0H0z M54.7,50l429.7,0.8l-40.6,450l-174.2,48.4l-175-48.4L54.7,50z M114.8,125l16.4,186.7h214.1l-7,80.5l-68.8,18.8 h-0.8L200,392.2l-3.9-51.6h-62.5l8.6,99.2L268.8,475h0.8l126.6-35.2L413.3,250H187.5l-5.5-63.3h236.7l5.5-61.7H114.8z" fill="#FFFFFF"/>
</svg>
