<?xml version="1.0" encoding="windows-1252"?>
<!-- Uploaded to: SVG Repo, www.svgrepo.com, Generator: SVG Repo Mixer Tools -->
<svg fill="#000000" height="800px" width="800px" version="1.1" id="Layer_1" xmlns="http://www.w3.org/2000/svg" xmlns:xlink="http://www.w3.org/1999/xlink" viewBox="0 0 512 512" xml:space="preserve">
<g>
	<g>
		<path d="M453.818,104.727h-23.273c-6.982,0-11.636,4.655-11.636,11.636S423.564,128,430.545,128h23.273    c6.982,0,11.636-4.655,11.636-11.636S460.8,104.727,453.818,104.727z"/>
	</g>
</g>
<g>
	<g>
		<path d="M275.782,189.673c-4.655-4.655-11.636-4.655-16.291,0L166.4,282.764c-4.655,4.655-4.655,11.636,0,16.291    c2.327,2.327,5.818,3.491,8.145,3.491s5.818-1.164,8.145-3.491l93.091-93.091C280.436,201.309,280.436,194.327,275.782,189.673z"/>
	</g>
</g>
<g>
	<g>
		<path d="M275.782,247.855c-4.655-4.655-11.636-4.655-16.291,0l-34.909,34.909c-4.655,4.655-4.655,11.636,0,16.291    c2.327,2.327,5.818,3.491,8.146,3.491s5.818-1.164,8.145-3.491l34.909-34.909C280.436,259.491,280.436,252.509,275.782,247.855z"/>
	</g>
</g>
<g>
	<g>
		<path d="M217.6,189.673c-4.655-4.655-11.636-4.655-16.291,0L166.4,224.582c-4.655,4.655-4.655,11.636,0,16.291    c2.327,2.327,4.655,3.491,8.145,3.491s5.818-1.164,8.145-3.491l34.909-34.909C222.255,201.309,222.255,194.327,217.6,189.673z"/>
	</g>
</g>
<g>
	<g>
		<circle cx="442.182" cy="186.182" r="11.636"/>
	</g>
</g>
<g>
	<g>
		<circle cx="442.182" cy="232.727" r="11.636"/>
	</g>
</g>
<g>
	<g>
		<path d="M384,104.727H58.182c-3.491,0-5.818,1.164-8.145,3.491s-3.491,4.655-3.491,8.145v256c0,6.982,4.655,11.636,11.636,11.636    H384c3.491,0,5.818-1.164,8.145-3.491c2.327-2.327,3.491-4.655,3.491-8.145v-256C395.636,109.382,390.982,104.727,384,104.727z     M372.364,360.727H69.818V128h302.545V360.727z"/>
	</g>
</g>
<g>
	<g>
		<path d="M477.091,58.182H34.909C15.127,58.182,0,73.309,0,93.091v302.545c0,19.782,15.127,34.909,34.909,34.909h27.927    l8.145,16.291c2.327,4.655,5.818,6.982,10.473,6.982H128c4.655,0,8.145-2.327,10.473-6.982l8.145-16.291h218.764l8.146,16.291    c2.327,3.491,5.818,6.982,10.473,6.982h46.545c4.655,0,8.145-2.327,10.473-6.982l11.636-23.273c2.327-5.818,0-12.8-4.655-15.127    c-5.818-2.327-12.8,0-15.127,4.655l-9.309,17.455h-32.582l-8.146-16.291c-2.327-4.654-5.818-6.982-10.473-6.982H139.636    c-4.655,0-8.145,2.327-10.473,6.982l-8.145,16.291H88.436l-8.145-16.291c-2.327-4.654-5.818-6.982-10.473-6.982H34.909    c-6.982,0-11.636-4.655-11.636-11.636V93.091c0-6.982,4.655-11.636,11.636-11.636h442.182c6.982,0,11.636,4.655,11.636,11.636    v302.545c0,6.982-4.655,11.636-11.636,11.636s-11.636,4.655-11.636,11.636s4.655,11.636,11.636,11.636    c19.782,0,34.909-15.127,34.909-34.909V93.091C512,73.309,496.873,58.182,477.091,58.182z"/>
	</g>
</g>
</svg>